<svg version="1" xmlns="http://www.w3.org/2000/svg" width="2846.667" height="2846.667" viewBox="0 0 2135.000000 2135.000000"><path d="M1067 220.2v80.5l23.3.6c142.4 4.1 278.7 47.3 398.2 126.1 67.1 44.3 126.5 98.5 177.2 161.8C1765 713.1 1822 861.3 1832.1 1022c1.3 21 .7 88.8-1 106.5-10.2 106.5-34.6 193.1-79.6 282-30.4 60.3-67.1 114.5-110.5 163.5-12.7 14.4-44.9 47-59.7 60.6-41.5 37.9-93 74.7-143.7 102.8-176.6 97.9-386 121.8-580.1 66.1-304.3-87.4-524.6-353-552.9-667-1.4-14.8-3.5-55.4-3.6-66.8v-3.7H140.7l.6 28.2c2.5 116.7 29.2 235.3 77.7 345.8 10 22.9 30.8 64 43.2 85.5 32.4 56.2 66.6 104 109.4 153 19 21.8 62 64.8 83.9 84C594.6 1884.1 760.1 1960 940 1984.9c97.3 13.5 202.5 10.9 299.9-7.5 153.5-29 297.6-97.1 419.3-198 39.6-32.9 74.5-67 108.2-105.8 93.9-108 161.9-237 197.1-374.1 14.7-56.9 22.1-102.3 27.7-169 1.7-20.6 1.7-105.8 0-127-6.3-77.1-17.6-138.4-37.7-204.9-73-241.6-243.7-444.6-470-559.1-122.9-62.1-254.1-95.2-393.7-99.1l-23.8-.7v80.5z"/><path d="M685.2 515c-13.6 3.6-24 10.7-29.6 20.2-2 3.5-3.3 8.9-6.1 24.9-5.2 30.4-11.8 73.4-16.9 109.4-14.9 106-18.3 155.3-13.1 194 11.5 86.3 62 153.6 138.3 184.6l8.4 3.4-.6 8c-.3 4.4-6.7 121.2-14.2 259.5-11.8 217.3-13.5 252.4-12.5 258.5 3.3 19.9 18.9 36.8 38.7 41.9 9.1 2.4 154.8 2.4 163.9.1 13.2-3.4 24.2-11.4 31.7-22.9 5.6-8.6 7.8-16.8 7.8-28.5 0-5.3-6.1-121.6-13.5-258.5S954 1058.6 954 1056v-4.7l6.8-2.8c20.7-8.7 40.7-20.4 57.2-33.5 9.7-7.7 28.3-26.6 35.1-35.5 24.7-32.3 39.1-67.2 46.5-112.5 2.1-12.9 3-55.3 1.5-75.1-3.9-51-15.7-139.4-30.7-229.4-4-24.1-5.8-29-13.5-35.9-9.9-8.9-24.3-13.6-41.4-13.6-23 0-42.2 9.5-49.5 24.5l-2.5 5-.5 156-.5 156-4 2c-5.6 2.7-19.4 2.7-25 0-2.9-1.5-4.1-2.7-4.3-4.5-.1-1.4-4-70.7-8.7-153.9-4.7-83.3-9-153.3-9.6-155.5-5.5-21.3-36.3-34.3-66.6-28-20.5 4.2-35.2 17.4-36.9 33-.4 3.8-17.4 303.5-17.4 306.7 0 2.1-7.9 4-16.5 4.1-7 0-9.9-.4-13-1.9l-4-2L756 698l-.5-156.5-3-5.3c-5.5-10.1-16.3-17.7-30.1-21.2-10.3-2.7-27-2.6-37.2 0zM1443 514.5c-37.2 6.3-77 26.1-117.5 58.4-13.5 10.7-44.3 40.9-55.7 54.6-56.7 67.9-90.7 146-97.8 224.5-1.5 16.6-1.2 44.8.5 61.8 9.5 91 56.6 171.4 142.3 242.7 7.7 6.4 9.2 8.1 9.2 10.5 0 1.6-7.2 91.7-16 200.2-8.8 108.4-16 199.7-16 202.8 0 22.5 16.9 43.6 39.7 49.5 8.6 2.2 136.7 2.2 146.2 0 14-3.3 27.8-14.1 34-26.6 6.6-13.6 6.1 31 5.9-529.6l-.3-508.8-2.7-6.9c-6.5-16.8-19.5-28.8-35.9-33.1-6.6-1.8-25.5-1.8-35.9 0z"/></svg>